<?xml version="1.0" encoding="utf-8"?>
<!DOCTYPE svg PUBLIC "-//W3C//DTD SVG 1.1//EN" "http://www.w3.org/Graphics/SVG/1.1/DTD/svg11.dtd">
<svg width="20" height="20" xmlns="http://www.w3.org/2000/svg" viewBox="2 2 20 20" class="svg-icon"><g fill="currentColor"><path d="M17,3 C17.5288277,3 18.0114308,3.21956678 18.3700303,3.57660023 C18.7573438,3.96222228 19,4.50820702 19,5.11111111 L19,18.9001085 C19,19.1843997 18.9393915,19.4654242 18.8222158,19.7244442 C18.3669478,20.7308262 17.1820463,21.1775924 16.1756643,20.7223243 L12.8243357,19.2062471 C12.3003403,18.9692016 11.6996597,18.9692016 11.1756643,19.2062471 L7.82617204,20.7214936 C7.56678834,20.8388338 7.28534247,20.899446 7.00065209,20.8992774 C6.57499325,20.8990254 6.18047105,20.765817 5.85633712,20.5389503 C5.33935521,20.1771062 5.00143467,19.577004 5.0018363,18.8980935 L5.01,5.11111111 C5.01,3.95 5.9,3 7,3 L17,3 Z M15,9 C14.6098792,8.60907265 13.9767145,8.60841881 13.5857872,8.99853963 L10.9917303,11.5872446 L10.4142128,11.0109185 C10.0232855,10.6207977 9.39012081,10.6214515 9,11.0123789 C8.60987919,11.4033062 8.61053302,12.0364709 9.00146037,12.4265917 L10.2853541,13.7078366 C10.6757107,14.0973878 11.30775,14.0973878 11.6981066,13.7078366 L14.9985396,10.4142128 C15.389467,10.024092 15.3901208,9.39092735 15,9 Z"></path></g></svg> 