<?xml version="1.0" encoding="utf-8"?>
<!-- Generator: Adobe Illustrator 18.1.1, SVG Export Plug-In . SVG Version: 6.00 Build 0)  -->
<!DOCTYPE svg PUBLIC "-//W3C//DTD SVG 1.1//EN" "http://www.w3.org/Graphics/SVG/1.1/DTD/svg11.dtd">
<svg version="1.1" id="Layer_1" xmlns="http://www.w3.org/2000/svg" xmlns:xlink="http://www.w3.org/1999/xlink" x="0px" y="0px"
	 viewBox="0 0 600 763" enable-background="new 0 0 600 763" xml:space="preserve">
<rect id="backdrop" fill="#002110" width="600" height="762.7"/>
<g id="Circuit">
	<path fill="#009245" d="M549.7,43c0-2-0.5-3.8-1.5-5.3h-5.3c2,1,3.3,3.1,3.3,5.3c0,3.3-2.8,6.1-6.1,6.1c-3.3,0-6.1-2.8-6.1-6.1
		c0-2.3,1.3-4.3,3.3-5.3h-5.3c-1,1.5-1.5,3.3-1.5,5.3c0,5.3,4.3,9.9,9.9,9.9C545.3,52.9,549.7,48.3,549.7,43z"/>
	<path fill="#009245" d="M434,545.8c0,2.8,2.3,5.3,5.3,5.3c2.8,0,5.3-2.3,5.3-5.3c0-2.5-1.8-4.8-4.3-5.1v-5.3
		c2.5-0.5,4.3-2.5,4.3-5.1c0-2.8-2.3-5.3-5.3-5.3c-1,0-2,0.3-2.8,0.8c-2.5-2.5-10.9-10.9-11.4-11.4c0-1,0-98.4,0-98.4
		s-7.4-7.4-7.9-7.9c0-1,0-46,0-47c0.8-0.8,6.6-6.6,6.6-6.6s0-7.1,0-8.1c0.5-0.5,3.6-3.6,5.1-5.1h20.6v-7.4h8.4
		c0.8,2,2.5,3.3,4.8,3.3c2.8,0,5.3-2.3,5.3-5.3c0-2.5-1.8-4.8-4.3-5.1v-14.7h4.8v-7.1h11.2v-43.5c0,0-27.7,0-30,0c0-2.3,0-88,0-89
		c0.8-0.8,7.9-7.9,7.9-7.9V78.1l-7.1-7.1h-5.8v-3.6h-16.8v2.8h-11.4v-5.1h-17.3v9.2h9.4c0,11.4,0,78.1,0,80.1c-0.8,0-1.8,0-2.5,0
		c-0.5-2.5-2.5-4.3-5.1-4.3c-2.8,0-5.3,2.3-5.3,5.3s2.3,5.3,5.3,5.3c2.3,0,4.3-1.5,5.1-3.8h5.1V74.5h5.1v-1.8h11.4v3.8h16.8v-3.1
		c1.8,0,4.3,0,4.8,0c0.5,0.5,5.1,5.1,5.8,5.8c0,1,0,83.1,0,83.9c-0.8,0.8-7.9,7.9-7.9,7.9v92.5c0,0,27.7,0,30,0c0,2.3,0,36.4,0,38.6
		c-1.5,0-6.1,0-8.6,0v-4.8H452v14h9.4v15c-2,0.5-3.6,2.3-3.8,4.3h-8.1v-7.9h-22.4v16.3l-5.6,5.6c0,0,0,7.1,0,8.1
		c-0.8,0.8-6.6,6.6-6.6,6.6v49.1c0,0,7.4,7.4,7.9,7.9c0,1,0,98.4,0,98.4L435,527c-0.5,0.8-0.8,1.8-0.8,2.8c0,2.3,1.5,4.3,3.8,5.1
		v5.6C435.5,541.3,434,543.3,434,545.8z M441.4,545.8c0,1.3-1,2.3-2.3,2.3s-2.3-1-2.3-2.3s1-2.3,2.3-2.3
		C440.3,543.6,441.4,544.6,441.4,545.8z M400.9,157.9c-1.3,0-2.3-1-2.3-2.3s1-2.3,2.3-2.3c1.3,0,2.3,1,2.3,2.3
		C403,156.9,402.2,157.9,400.9,157.9z M460.7,331.5c0-1.3,1-2.3,2.3-2.3s2.3,1,2.3,2.3s-1,2.3-2.3,2.3
		C461.4,333.8,460.7,332.8,460.7,331.5z M437,530.1c0-1.3,1-2.3,2.3-2.3c1.3,0,2.3,1,2.3,2.3s-1,2.3-2.3,2.3
		C438.1,532.1,437,531.1,437,530.1z"/>
	<path fill="#009245" d="M393.6,439.6c0-2.8-2.3-5.3-5.3-5.3c-2.8,0-5.3,2.3-5.3,5.3c0,2.3,1.5,4.3,3.6,4.8c0,7.4,0,57.7,0,58.7
		c-0.8,0.8-18.8,18.8-18.8,18.8l0,0c-0.8,1-1.3,2-1.3,3.3c0,2.5,1.5,4.3,3.8,5.1c0,11.4,0,14.5,0,15.5c-0.5,0.5-7.6,7.6-10.7,10.7
		c-0.8-0.8-2-1-3.3-1c-2.8,0-5.3,2.3-5.3,5.3c0,3.1,2.3,5.3,5.3,5.3c2.8,0,5.3-2.3,5.3-5.3c0-0.8-0.3-1.5-0.5-2.3l11.4-11.4v-16.3
		c2.3-0.5,4.1-2.5,4.1-5.1s-1.8-4.6-4.3-5.1l16-16v-59.7C391.5,444.4,393.6,442.4,393.6,439.6z M386.2,439.6c0-1.3,1-2.3,2.3-2.3
		s2.3,1,2.3,2.3s-1,2.3-2.3,2.3S386.2,440.8,386.2,439.6z M356.7,563.1c-1.3,0-2.3-1-2.3-2.3s1-2.3,2.3-2.3c1.3,0,2.3,1,2.3,2.3
		S358,563.1,356.7,563.1z M374,525.5c0,1.3-1,2.3-2.3,2.3c-1.3,0-2.3-1-2.3-2.3s1-2.3,2.3-2.3C373,523.5,374,524.5,374,525.5z"/>
	<path fill="#009245" d="M393.3,373c2.8,0,5.3-2.3,5.3-5.3c0-2.8-2.3-5.3-5.3-5.3c-2.3,0-4.3,1.5-5.1,3.8h-9.7c0,0,0,122.8,0,123.8
		c-0.8,0.8-23.9,23.9-23.9,23.9v22.6c-2,0.8-3.6,2.5-3.6,5.1c0,2.8,2.3,5.3,5.3,5.3c2.8,0,5.3-2.3,5.3-5.3c0-2.5-2-4.8-4.3-5.1
		c0-9.9,0-20.6,0-21.4c0.8-0.8,23.9-23.9,23.9-23.9s0-120,0-122.5c1.5,0,4.8,0,7.1,0C388.5,371.2,390.8,373,393.3,373z M358.5,541.5
		c0,1.3-1,2.3-2.3,2.3s-2.3-1-2.3-2.3s1-2.3,2.3-2.3C357.7,539.2,358.5,540.3,358.5,541.5z M393.3,365.6c1.3,0,2.3,1,2.3,2.3
		c0,1.3-1,2.3-2.3,2.3s-2.3-1-2.3-2.3C391,366.6,392,365.6,393.3,365.6z"/>
	<path fill="#009245" d="M427.9,483.3v15.3h7.1v-15c1.3-1,2-2.3,2-4.1c0-2.8-2.3-5.3-5.3-5.3c-2.8,0-5.3,2.3-5.3,5.3
		C426.4,481,426.9,482.5,427.9,483.3z M431.4,477.5c1.3,0,2.3,1,2.3,2.3c0,1.3-1,2.3-2.3,2.3s-2.3-1-2.3-2.3
		C429.4,478.5,430.4,477.5,431.4,477.5z"/>
	<path fill="#009245" d="M549.2,522.2c0,2.8,2.3,5.3,5.3,5.3c2.8,0,5.3-2.3,5.3-5.3c0-2.8-2.3-5.3-5.3-5.3
		C551.7,517.1,549.2,519.4,549.2,522.2z M556.8,522.2c0,1.3-1,2.3-2.3,2.3s-2.3-1-2.3-2.3s1-2.3,2.3-2.3S556.8,521.2,556.8,522.2z"
		/>
	<path fill="#009245" d="M478,188.9c2.8,0,5.3-2.3,5.3-5.3c0-2.8-2.3-5.3-5.3-5.3c-2.8,0-5.3,2.3-5.3,5.3S474.9,188.9,478,188.9z
		 M478,181.5c1.3,0,2.3,1,2.3,2.3c0,1.3-1,2.3-2.3,2.3c-1.3,0-2.3-1-2.3-2.3C475.7,182.5,476.7,181.5,478,181.5z"/>
	<path fill="#009245" d="M385.4,198.8c2.8,0,5.3-2.3,5.3-5.3c0-2.8-2.3-5.3-5.3-5.3c-2.8,0-5.3,2.3-5.3,5.3
		C380.3,196.5,382.6,198.8,385.4,198.8z M385.4,191.4c1.3,0,2.3,1,2.3,2.3c0,1.3-1,2.3-2.3,2.3c-1.3,0-2.3-1-2.3-2.3
		C383.4,192.5,384.4,191.4,385.4,191.4z"/>
	<path fill="#009245" d="M230.1,101.2c2.8,0,5.3-2.3,5.3-5.3c0-2.8-2.3-5.3-5.3-5.3c-2.8,0-5.3,2.3-5.3,5.3
		C224.7,98.6,227,101.2,230.1,101.2z M230.1,93.6c1.3,0,2.3,1,2.3,2.3c0,1.3-1,2.3-2.3,2.3c-1.3,0-2.3-1-2.3-2.3
		C227.8,94.6,228.8,93.6,230.1,93.6z"/>
	<path fill="#009245" d="M199.8,76c-2.8,0-5.3,2.3-5.3,5.3s2.3,5.3,5.3,5.3c2.8,0,5.3-2.3,5.3-5.3C205.2,78.3,202.6,76,199.8,76z
		 M199.8,83.4c-1.3,0-2.3-1-2.3-2.3c0-1.3,1-2.3,2.3-2.3c1.3,0,2.3,1,2.3,2.3C201.9,82.6,200.8,83.4,199.8,83.4z"/>
	<path fill="#009245" d="M154.8,163c0,2.8,2.3,5.3,5.3,5.3c2.8,0,5.3-2.3,5.3-5.3c0-2.5-1.8-4.6-4.1-5.1V55.9
		c2.3-0.5,4.1-2.5,4.1-5.1c0-2.8-2.3-5.3-5.3-5.3c-2.8,0-5.3,2.3-5.3,5.3c0,2.5,1.5,4.3,3.8,5.1v102.2
		C156.6,158.6,154.8,160.7,154.8,163z M162.2,163c0,1.3-1,2.3-2.3,2.3c-1.3,0-2.3-1-2.3-2.3c0-1.3,1-2.3,2.3-2.3
		C161.2,160.7,162.2,161.9,162.2,163z M157.9,50.8c0-1.3,1-2.3,2.3-2.3c1.3,0,2.3,1,2.3,2.3s-1,2.3-2.3,2.3
		C158.9,53.1,157.9,51.9,157.9,50.8z"/>
	<path fill="#009245" d="M130.2,88c-2.8,0-5.3,2.3-5.3,5.3c0,2.8,2.3,5.3,5.3,5.3c2.8,0,5.3-2.3,5.3-5.3C135.5,90.3,133,88,130.2,88
		z M130.2,95.3c-1.3,0-2.3-1-2.3-2.3c0-1.3,1-2.3,2.3-2.3c1.3,0,2.3,1,2.3,2.3C132.2,94.3,131.4,95.3,130.2,95.3z"/>
	<path fill="#009245" d="M58.2,78.8c0-2.5-1.8-4.6-4.1-5.1V37.6h-2.5v36.1c-2.3,0.5-4.1,2.5-4.1,5.1c0,2.8,2.3,5.3,5.3,5.3
		S58.2,81.9,58.2,78.8z M50.8,78.8c0-1.3,1-2.3,2.3-2.3s2.3,1,2.3,2.3s-1,2.3-2.3,2.3S50.8,80.1,50.8,78.8z"/>
	<path fill="#009245" d="M38.1,112.6c2.8,0,5.3-2.3,5.3-5.3c0-2.5-2-4.8-4.6-5.1V37.6h-2.5v64.8c-0.5,0.3-1,0.5-1.3,0.8v8.6
		C35.8,112.4,37.1,112.6,38.1,112.6z M35.8,107.3c0-1.3,1-2.3,2.3-2.3s2.3,1,2.3,2.3s-1,2.3-2.3,2.3
		C36.9,109.6,35.8,108.6,35.8,107.3z"/>
	<path fill="#009245" d="M99.4,200.6c-2.8,0-5.3,2.3-5.3,5.3c0,2.8,2.3,5.3,5.3,5.3c2.5,0,4.6-1.8,5.1-4.1h6.1v2.8h25.2v-8.1h-25.2
		v2.8h-6.1C103.7,202.4,101.7,200.6,99.4,200.6z M99.4,208c-1.3,0-2.3-1-2.3-2.3c0-1.3,1-2.3,2.3-2.3s2.3,1,2.3,2.3
		C101.4,206.9,100.4,208,99.4,208z"/>
	<path fill="#009245" d="M99.4,214.6c-2.8,0-5.3,2.3-5.3,5.3c0,2.8,2.3,5.3,5.3,5.3c2.5,0,4.6-1.8,5.1-4.1h6.1v2.8h25.2v-8.1h-25.2
		v2.8h-6.1C103.7,216.4,101.7,214.6,99.4,214.6z M99.4,221.9c-1.3,0-2.3-1-2.3-2.3s1-2.3,2.3-2.3s2.3,1,2.3,2.3
		C101.4,221.2,100.4,221.9,99.4,221.9z"/>
	<path fill="#009245" d="M77.5,403c0,2.8,2.3,5.3,5.3,5.3c2.8,0,5.3-2.3,5.3-5.3c0-1.5-0.8-2.8-1.8-3.8l7.1-7.1c0,0,0-72.5,0-73.5
		c0.8-0.8,11.9-11.9,12.5-12.5c0.5,0,2.8,0,4.3,0v2.8h25.2v-8.1h-25.2v3.1H105l-14,14c0,0,0,72.5,0,73.5c-0.5,0.5-5.6,5.6-6.9,6.9
		c-0.5,0-0.8-0.3-1.3-0.3C80.1,397.6,77.5,400.2,77.5,403z M85.2,403c0,1.3-1,2.3-2.3,2.3s-2.3-1-2.3-2.3c0-1.3,1-2.3,2.3-2.3
		S85.2,401.7,85.2,403z"/>
	<path fill="#009245" d="M98.9,415.4c2.8,0,5.3-2.3,5.3-5.3c0-2.8-2-5.1-4.8-5.1c0-8.6,0-76.8,0-77.8c0.5-0.5,6.9-6.9,7.6-7.6
		c0.5,0,2.5,0,3.6,0v2.8h25.2v-8.1h-25.2v2.8H106l-8.9,8.9V405c-2,0.8-3.3,2.5-3.3,4.8C93.8,412.9,96.1,415.4,98.9,415.4z
		 M98.9,407.8c1.3,0,2.3,1,2.3,2.3s-1,2.3-2.3,2.3c-1.3,0-2.3-1-2.3-2.3C96.9,408.8,97.9,407.8,98.9,407.8z"/>
	<path fill="#009245" d="M108.6,437.8c0,2.8,2.3,5.3,5.3,5.3c2.8,0,5.3-2.3,5.3-5.3c0-2.5-1.8-4.6-4.1-5.1c0-5.1,0-21.9,0-22.6
		c0.8-0.8,7.1-7.1,7.1-7.1v-52.1H136v-8.1h-25.2v8.1h9.2c0,8.4,0,50.1,0,51.1c-0.8,0.8-7.1,7.1-7.1,7.1v23.6
		C110.3,433.5,108.6,435.5,108.6,437.8z M115.9,437.8c0,1.3-1,2.3-2.3,2.3s-2.3-1-2.3-2.3c0-1.3,1-2.3,2.3-2.3
		S115.9,436.8,115.9,437.8z"/>
	<path fill="#009245" d="M134.5,473.4c0-2.8-2.3-5.3-5.3-5.3c-2.8,0-5.3,2.3-5.3,5.3c0,2.8,2.3,5.3,5.3,5.3S134.5,476.4,134.5,473.4
		z M127.1,473.4c0-1.3,1-2.3,2.3-2.3c1.3,0,2.3,1,2.3,2.3s-1,2.3-2.3,2.3C128.1,475.7,127.1,474.7,127.1,473.4z"/>
	<path fill="#009245" d="M181.3,331.8c0-2.5-1.8-4.3-3.8-5.1c0-5.3,0-35.6,0-36.6c0.5-0.5,7.6-7.6,10.2-10.2c0.8,0.5,2,1,3.1,1
		c2.8,0,5.3-2.3,5.3-5.3c0-2.8-2.3-5.3-5.3-5.3c-2.8,0-5.3,2.3-5.3,5.3c0,0.8,0.3,1.8,0.5,2.3l-10.9,10.9v37.6
		c-2.3,0.5-4.1,2.5-4.1,5.1c0,2.8,2.3,5.3,5.3,5.3C178.7,337.1,181.3,334.8,181.3,331.8z M188.4,275.8c0-1.3,1-2.3,2.3-2.3
		c1.3,0,2.3,1,2.3,2.3c0,1.3-1,2.3-2.3,2.3C189.2,278.1,188.4,277.1,188.4,275.8z M173.9,331.8c0-1.3,1-2.3,2.3-2.3
		c1.3,0,2.3,1,2.3,2.3s-1,2.3-2.3,2.3C174.7,334.1,173.9,333.1,173.9,331.8z"/>
	<path fill="#009245" d="M153.6,233.9c0,2.8,2.3,5.3,5.3,5.3c2.8,0,5.3-2.3,5.3-5.3c0-2.5-1.8-4.6-4.1-5.1v-17.5
		c0,0-12.2-12.2-13-13c0-0.3,0-1,0-1.5h2.5v-22.6h-7.4v22.6h2.3v2.5c0,0,12.2,12.2,13,13c0,0.8,0,13.5,0,16.5
		C155.1,229.3,153.6,231.4,153.6,233.9z M160.9,233.9c0,1.3-1,2.3-2.3,2.3c-1.3,0-2.3-1-2.3-2.3c0-1.3,1-2.3,2.3-2.3
		C159.9,231.9,160.9,232.6,160.9,233.9z"/>
	<path fill="#009245" d="M169.3,261.6c0,2.8,2.3,5.3,5.3,5.3c2.8,0,5.3-2.3,5.3-5.3c0-2.5-1.8-4.6-4.1-5.1v-43.2
		c0,0-13.7-13.7-14.5-14.5c0-0.3,0-1,0-1.8h2.3v-22.6h-7.1V197h2.5v2.8c0,0,13.7,13.7,14.5,14.5c0,1,0,36.4,0,42.2
		C170.8,257,169.3,259.1,169.3,261.6z M176.7,261.6c0,1.3-1,2.3-2.3,2.3c-1.3,0-2.3-1-2.3-2.3c0-1.3,1-2.3,2.3-2.3
		C175.7,259.3,176.7,260.3,176.7,261.6z"/>
	<path fill="#009245" d="M287,288.3c-0.5-2-2.5-3.8-4.8-3.8v-31c2.8-0.3,5.1-2.5,5.1-5.3c0-2.8-2.3-5.3-5.3-5.3
		c-2.8,0-5.3,2.3-5.3,5.3c0,2,1.3,4.1,3.1,4.8v31.8c-1.8,0.8-3.1,2.5-3.1,4.8c0,2.3,1.3,4.1,3.3,4.8c0,5.8,0,43.2,0,44
		c-0.5,0.5-2,2-3.1,3.1c-0.8-0.5-1.8-1-3.1-1c-2.8,0-5.3,2.3-5.3,5.3c0,2.8,2.3,5.3,5.3,5.3c2.8,0,5.3-2.3,5.3-5.3
		c0-1-0.3-1.8-0.8-2.5l3.8-3.8v-44.5c2.3-0.3,4.3-1.8,4.8-4.1 M279.9,248.4c0-1.3,1-2.3,2.3-2.3s2.3,1,2.3,2.3c0,1.3-1,2.3-2.3,2.3
		C280.9,250.4,279.9,249.7,279.9,248.4z M279.9,289.8c0-1.3,1-2.3,2.3-2.3s2.3,1,2.3,2.3c0,1.3-1,2.3-2.3,2.3
		C280.9,291.9,279.9,291.1,279.9,289.8z M276.1,346c0,1.3-1,2.3-2.3,2.3c-1.3,0-2.3-1-2.3-2.3s1-2.3,2.3-2.3
		C275.1,343.7,276.1,344.7,276.1,346z"/>
	<path fill="#009245" d="M432.7,48.6c2.8,0,5.3-2.3,5.3-5.3c0-2.8-2.3-5.3-5.3-5.3c-2.8,0-5.3,2.3-5.3,5.3
		C427.6,46.3,429.9,48.6,432.7,48.6z M432.7,41.2c1.3,0,2.3,1,2.3,2.3s-1,2.3-2.3,2.3c-1.3,0-2.3-1-2.3-2.3
		C430.7,42.2,431.4,41.2,432.7,41.2z"/>
	<path fill="#009245" d="M268.7,337.1c2.8,0,5.3-2.3,5.3-5.3c0-2.5-1.8-4.6-4.1-5.1v-46.3c2.3-0.5,4.1-2.5,4.1-5.1
		c0-2.8-2.3-5.3-5.3-5.3c-2.8,0-5.3,2.3-5.3,5.3c0,2.5,1.8,4.6,4.1,5.1v46.3c-2,0.5-3.6,2-4.1,4.1h-25.2v24.2h-1.8v22.4h7.6v-22.4
		h-3.3c0-5.6,0-19.8,0-21.6c2,0,18.8,0,22.9,0C264.4,335.6,266.2,337.1,268.7,337.1z M266.4,275.3c0-1.3,1-2.3,2.3-2.3
		c1.3,0,2.3,1,2.3,2.3c0,1.3-1,2.3-2.3,2.3C267.5,277.4,266.4,276.4,266.4,275.3z M268.7,329.7c1.3,0,2.3,1,2.3,2.3
		c0,1.3-1,2.3-2.3,2.3c-1.3,0-2.3-1-2.3-2.3C266.4,330.8,267.5,329.7,268.7,329.7z"/>
	<path fill="#009245" d="M224.5,310.9c0,2.8,2.3,5.3,5.3,5.3c2.8,0,5.3-2.3,5.3-5.3c0-2.8-2-4.8-4.8-5.1c0-14.5,0-138.6,0-140.8
		c0.8,0,1.8,0,2.5,0c0.5,2.3,2.5,3.8,5.1,3.8c2.8,0,5.3-2.3,5.3-5.3c0-2.5-1.8-4.8-4.3-5.1v-32.3c2.5-0.5,4.3-2.5,4.3-5.1
		c0-2.8-2.3-5.3-5.3-5.3c-2.8,0-5.3,2.3-5.3,5.3c0,2.3,1.5,4.3,3.8,5.1v32.3c-1.8,0.5-3.3,2-3.6,4.1h-4.8v70.9
		c-0.3-2.8-2.5-4.8-5.3-4.8c-2.8,0-5.3,2.3-5.3,5.3c0,2.8,2.3,5.3,5.3,5.3c2.8,0,5.1-2.3,5.3-4.8v71.9
		C225.8,306.6,224.5,308.6,224.5,310.9z M231.9,310.9c0,1.3-1,2.3-2.3,2.3c-1.3,0-2.3-1-2.3-2.3s1-2.3,2.3-2.3
		C230.8,308.6,231.9,309.7,231.9,310.9z M235.7,121c0-1.3,1-2.3,2.3-2.3c1.3,0,2.3,1,2.3,2.3s-1,2.3-2.3,2.3
		C236.4,123.1,235.7,122,235.7,121z M237.7,161.2c1.3,0,2.3,1,2.3,2.3c0,1.3-1,2.3-2.3,2.3c-1.3,0-2.3-1-2.3-2.3
		C235.7,162.2,236.4,161.2,237.7,161.2z M222.7,235.7c-1.3,0-2.3-1-2.3-2.3c0-1.3,1-2.3,2.3-2.3c1.3,0,2.3,1,2.3,2.3
		C224.7,234.7,223.7,235.7,222.7,235.7z"/>
	<path fill="#009245" d="M253,414.9c2.8,0,5.3-2.3,5.3-5.3c0-2.8-2.3-5.3-5.3-5.3c-2.8,0-5.3,2.3-5.3,5.3S249.9,414.9,253,414.9z
		 M253,407.5c1.3,0,2.3,1,2.3,2.3s-1,2.3-2.3,2.3c-1.3,0-2.3-1-2.3-2.3S251.7,407.5,253,407.5z"/>
	<path fill="#009245" d="M286.5,559.8c0,2.8,2.3,5.3,5.3,5.3c2.8,0,5.3-2.3,5.3-5.3c0-2.8-2.3-5.3-5.3-5.3
		C289.1,554.7,286.5,557,286.5,559.8z M294.2,559.8c0,1.3-1,2.3-2.3,2.3c-1.3,0-2.3-1-2.3-2.3s1-2.3,2.3-2.3
		C293.1,557.8,294.2,558.6,294.2,559.8z"/>
	<path fill="#009245" d="M129.9,514.6c2.8,0,5.3-2.3,5.3-5.3c0-2.8-2.3-5.3-5.3-5.3c-2.8,0-5.3,2.3-5.3,5.3S127.1,514.6,129.9,514.6
		z M127.6,509.2c0-1.3,1-2.3,2.3-2.3c1.3,0,2.3,1,2.3,2.3s-1,2.3-2.3,2.3C128.6,511.5,127.6,510.5,127.6,509.2z"/>
	<path fill="#009245" d="M133.5,551.4c0-2.8-2.3-5.3-5.3-5.3c-2.8,0-5.3,2.3-5.3,5.3c0,2.8,2.3,5.3,5.3,5.3
		C131.2,556.5,133.5,554.2,133.5,551.4z M126.1,551.4c0-1.3,1-2.3,2.3-2.3c1.3,0,2.3,1,2.3,2.3s-1,2.3-2.3,2.3
		C127.1,553.5,126.1,552.5,126.1,551.4z"/>
	<path fill="#009245" d="M82.6,531.9c-2.8,0-5.3,2.3-5.3,5.3c0,2.8,2.3,5.3,5.3,5.3c2.8,0,5.3-2.3,5.3-5.3S85.4,531.9,82.6,531.9z
		 M84.7,537.2c0,1.3-1,2.3-2.3,2.3s-2.3-1-2.3-2.3s1-2.3,2.3-2.3C83.9,534.9,84.7,535.9,84.7,537.2z"/>
	<path fill="#009245" d="M50.8,557.5c0-2.5-1.8-4.6-4.1-5.1c0-16.8,0-267.2,0-268.2c0.5-0.5,14.2-14.2,17.8-17.8
		c0.8,0.5,1.8,1,3.1,1c2.8,0,5.3-2.3,5.3-5.3c0-2.8-2.3-5.3-5.3-5.3c-2.8,0-5.3,2.3-5.3,5.3c0,1,0.3,1.8,0.8,2.5l-18.8,18.8v269.2
		c-2.3,0.5-4.1,2.5-4.1,5.1c0,2.8,2.3,5.3,5.3,5.3C48.6,562.6,50.8,560.3,50.8,557.5z M65.6,261.9c0-1.3,1-2.3,2.3-2.3
		s2.3,1,2.3,2.3s-1,2.3-2.3,2.3C66.6,264.2,65.6,263.1,65.6,261.9z M43.5,557.5c0-1.3,1-2.3,2.3-2.3s2.3,1,2.3,2.3
		c0,1.3-1,2.3-2.3,2.3C44.5,559.6,43.5,558.6,43.5,557.5z"/>
	<path fill="#009245" d="M287.3,442.4V420h-2.5v-10.4c0,0-15.5-14.5-16.3-15c0-0.8,0-13.5,0-17.3h3.1v-22.4h-7.4v22.4h2v18.6
		c0,0,15.5,14.5,16.3,15c0,0.8,0,6.6,0,9.4h-2.3v22.4h7.1V442.4z"/>
	<path fill="#009245" d="M271.5,442.4V420h-2.3v-13c0,0-14-13.2-14.7-14c0-0.8,0-11.9,0-16h2.3v-22.4h-7.4V377h2.5v17
		c0,0,14,13.2,14.7,14c0,0.8,0,8.9,0,11.9h-2.5v22.4L271.5,442.4L271.5,442.4z"/>
	<rect x="249.2" y="420.3" fill="#009245" width="7.4" height="22.4"/>
	<path fill="#009245" d="M236.7,442.4h7.4V420h-2.8v-11.9c2.3-0.5,4.1-2.5,4.1-5.1c0-2.8-2.3-5.3-5.3-5.3c-2.8,0-5.3,2.3-5.3,5.3
		c0,2.5,1.8,4.6,4.1,5.1V420h-2V442.4z M237.7,403.2c0-1.3,1-2.3,2.3-2.3c1.3,0,2.3,1,2.3,2.3s-1,2.3-2.3,2.3
		C238.7,405.5,237.7,404.5,237.7,403.2z"/>
	<path fill="#009245" d="M193.5,420.3v-30.5c0,0-8.1-8.1-8.9-8.9c0-1,0-35.1,0-35.1s-37.4,0-39.7,0c0-2,0-14,0-14h-9.2v-3.1h-25.2
		v8.1h25.2v-2.8c2,0,5.3,0,6.6,0c0,2,0,14,0,14s37.4,0,39.7,0c0,2.3,0,33.8,0,33.8s8.1,8.1,8.9,8.9c0,0.8,0,23.6,0,29.5h-2.8v22.4
		h7.4v-22.4H193.5z"/>
	<path fill="#009245" d="M188.4,490.2h7.4v-22.4h-3.1c0-11.4,0-6.4,0-7.4c0.8-0.8,8.4-12.7,8.4-12.7s0-113.9,0-114.9
		c0.5-0.5,5.6-5.6,5.6-5.6s0-26.9,0-28c0.8-0.8,8.6-8.6,8.6-8.6V147.2c2.5-0.5,4.3-2.5,4.3-5.1c0-2.8-2.3-5.3-5.3-5.3
		c-2.8,0-5.3,2.3-5.3,5.3c0,2.3,1.5,4.3,3.6,5.1c0,13.5,0,141.4,0,142.4c-0.8,0.8-8.6,8.6-8.6,8.6s0,26.9,0,28
		c-0.5,0.5-5.6,5.6-5.6,5.6s0,113.9,0,114.9c-0.8,0.8-8.4,12.7-8.4,12.7v8.4h-1.8v22.4H188.4z M212.3,141.9c0-1.3,1-2.3,2.3-2.3
		c1.3,0,2.3,1,2.3,2.3c0,1.3-1,2.3-2.3,2.3C213.3,144.2,212.3,143.1,212.3,141.9z"/>
	<path fill="#009245" d="M206.4,498.6c2.5-0.5,4.3-2.5,4.3-5.1c0-2.5-2-4.8-4.3-5.1v-45.8h4.8v-22.4h-7.4v22.4h0.3v46
		c-2,0.8-3.6,2.5-3.6,5.1c0,2.3,1.5,4.3,3.6,5.1 M203.6,493.5c0-1.3,1-2.3,2.3-2.3c1.3,0,2.3,1,2.3,2.3s-1,2.3-2.3,2.3
		C204.7,495.8,203.6,494.7,203.6,493.5z"/>
	<path fill="#009245" d="M222.5,506.2v-22.4h-3.1v-31.3c0,0-4.3-6.9-4.8-7.6c0-1,0-55.7,0-55.7s-7.6-7.6-8.4-8.4c0-0.5,0-2.3,0-3.8
		h3.3v-22.4h-7.4V377h1.8v4.8c0,0,7.6,7.6,8.4,8.4c0,1,0,55.7,0,55.7s4.3,6.9,4.8,7.6c0,1,0,18.3,0,30.5h-1.8v22.4h7.1V506.2z"/>
	<path fill="#009245" d="M192.5,354.9v-16.5c0,0-35.6,0-37.9,0c0-2,0-13.7,0-13.7s-7.9,0-9.7,0c0-2.3,0-44.5,0-44.5h-9.2V272h-25.2
		v8.1H89.5l-31,31v203.6l9.4,9.4h26.9v2.3h24.7v-6.9H94.8v2c-5.1,0-25.2,0-25.9,0c-0.5-0.5-7.4-7.4-8.1-8.1c0-1,0-200.6,0-201.6
		c0.8-0.8,29-29,29.7-29.7c1,0,49.6,0,51.9,0c0,2.3,0,44.5,0,44.5s7.9,0,9.7,0c0,2,0,13.7,0,13.7s35.6,0,37.9,0c0,1.3,0,8.4,0,14
		h-1.8v22.4h7.4v-22.4h-3.1V354.9z"/>
	<path fill="#009245" d="M163.5,354.9h-7.4v22.4h2.3v26.2c0,0,8.1,8.1,8.9,8.9c0,1,0,33.8,0,38.9c-5.6,0-14.7,0-15.5,0
		c-0.5-0.5-5.1-5.1-5.8-5.8c0-0.5,0-2,0-3.1h2.8V420h-7.4v22.4h2.3v4.1l7.1,7.1h20.1c0.5,2.3,2.5,3.8,5.1,3.8c2.8,0,5.3-2.3,5.3-5.3
		c0-2.5-1.8-4.6-4.1-5.1v-4.6h2.5V420h-7.4v22.4h2.3v4.8c-2,0.5-3.6,2-4.1,4.1c-0.3,0-0.5,0-1,0v-39.9c0,0-8.1-8.1-8.9-8.9
		c0-0.8,0-19.6,0-25.2h2.8V354.9z M175.7,450.3c1.3,0,2.3,1,2.3,2.3s-1,2.3-2.3,2.3c-1.3,0-2.3-1-2.3-2.3S174.4,450.3,175.7,450.3z"
		/>
	<path fill="#009245" d="M140.3,354.9v22.4h2.5v25.4c0,0,14.5,14.5,15.3,15.3c0,0.5,0,1.5,0,2.3h-1.5v22.4h7.4v-22.4h-3.3v-3.3
		c0,0-14.5-14.5-15.3-15.3c0-0.8,0-19.1,0-24.4h2.5v-22.4L140.3,354.9L140.3,354.9z"/>
	<rect x="320.8" y="420.3" fill="#009245" width="0.3" height="0.3"/>
	<rect x="94.8" y="448.7" fill="#009245" width="24.7" height="6.9"/>
	<rect x="94.8" y="463" fill="#009245" width="24.7" height="6.9"/>
	<rect x="94.8" y="476.4" fill="#009245" width="24.7" height="6.9"/>
	<rect x="94.8" y="491.4" fill="#009245" width="24.7" height="6.9"/>
	<rect x="94.8" y="504.4" fill="#009245" width="24.7" height="6.9"/>
	<rect x="94.8" y="533.4" fill="#009245" width="24.7" height="6.9"/>
	<rect x="94.8" y="547.4" fill="#009245" width="24.7" height="6.9"/>
	<rect x="302" y="555.8" fill="#009245" width="25.2" height="7.1"/>
	<path fill="#009245" d="M287.3,174.2H285V89.2c0,0-6.6-5.8-7.4-6.6c0-0.8,0-8.6,0-13h-2.5v14.2c0,0,6.6,5.8,7.4,6.6
		c0,1,0,71.9,0,83.9h-2.5V197h7.1v-22.9H287.3z"/>
	<path fill="#009245" d="M273.3,174.2h-7.1v22.6h2.3v24.7c-2.3,0.5-4.1,2.5-4.1,5.1c0,2.8,2.3,5.3,5.3,5.3c2.8,0,5.3-2.3,5.3-5.3
		c0-2.5-1.8-4.6-4.1-5.1v-24.7h2.3V174.2z M271.8,226.8c0,1.3-1,2.3-2.3,2.3c-1.3,0-2.3-1-2.3-2.3c0-1.3,1-2.3,2.3-2.3
		C270.8,224.5,271.8,225.5,271.8,226.8z"/>
	<path fill="#009245" d="M258.1,197v-22.6h-7.1V197h1.8v73.5c-2.5,0.5-4.3,2.5-4.3,5.1s1.8,4.6,4.1,5.1c0,4.8,0,34.8,0,36.9
		c-2.3,0-25.2,0-25.2,0v37.4h-8.9v22.4h8.9v30.8c-0.8-2-2.5-3.6-4.8-3.6c-2.8,0-5.3,2.3-5.3,5.3c0,2.8,2.3,5.3,5.3,5.3
		c2.3,0,4.1-1.5,4.8-3.6v8.6h-8.9v22.4h8.9v18.6c-2,0.8-3.6,2.5-3.6,4.8c0,2.8,2.3,5.3,5.3,5.3c2.8,0,5.3-2.3,5.3-5.3
		c0-2.5-2-4.8-4.6-5.1v-18.6h2.3V420h-2.3v-43h2.3v-22.4h-2.3c0-6.1,0-33.1,0-35.1c2.3,0,25.2,0,25.2,0v-39.4
		c2.3-0.5,4.1-2.5,4.1-5.1c0-2.3-1.5-4.3-3.8-5.1v-73.7h2.8V197z M220.2,409.8c0-1.3,1-2.3,2.3-2.3c1.3,0,2.3,1,2.3,2.3
		s-1,2.3-2.3,2.3C221.2,411.9,220.2,410.8,220.2,409.8z M231.4,466c0,1.3-1,2.3-2.3,2.3c-1.3,0-2.3-1-2.3-2.3s1-2.3,2.3-2.3
		C230.3,463.7,231.4,464.7,231.4,466z M255.8,275.6c0,1.3-1,2.3-2.3,2.3c-1.3,0-2.3-1-2.3-2.3s1-2.3,2.3-2.3
		C254.7,273.3,255.8,274.3,255.8,275.6z"/>
	<path fill="#009245" d="M241.5,174.2h-7.1v22.6h2.3v2.3c0,0,5.8,5.8,6.6,6.6c0,1,0,73,0,80.3c-1.8,0.8-3.1,2.5-3.1,4.6
		c0,2.8,2.3,5.3,5.3,5.3c2.8,0,5.3-2.3,5.3-5.3c0-2.8-2.3-5.1-5.1-5.3v-80.6c0,0-5.8-5.8-6.6-6.6c0-0.3,0-0.8,0-1.3h2.5v-22.6H241.5
		z M247.6,290.6c0,1.3-1,2.3-2.3,2.3s-2.3-1-2.3-2.3s1-2.3,2.3-2.3C246.6,288.6,247.6,289.6,247.6,290.6z"/>
	<rect x="219.4" y="174.2" fill="#009245" width="7.1" height="22.6"/>
	<path fill="#009245" d="M209.5,174.2h-7.1v22.6h2.8c0,12.5,0,84.4,0,85.2c-0.5,0.5-2.3,2.3-3.3,3.3c-0.8-0.5-1.8-1-3.1-1
		c-2.8,0-5.3,2.3-5.3,5.3c0,2.8,2.3,5.3,5.3,5.3c2.8,0,5.3-2.3,5.3-5.3c0-0.8-0.3-1.8-0.5-2.5l4.1-4.1V197h1.8L209.5,174.2
		L209.5,174.2z M200.8,289.8c0,1.3-1,2.3-2.3,2.3c-1.3,0-2.3-1-2.3-2.3c0-1.3,1-2.3,2.3-2.3C200.1,287.5,200.8,288.6,200.8,289.8z"
		/>
	<path fill="#009245" d="M187.4,174.2v22.6h2.8v11.7c-2,0.8-3.3,2.5-3.3,4.8c0,2.8,2.3,5.3,5.3,5.3c2.8,0,5.3-2.3,5.3-5.3
		c0-2.8-2-5.1-4.8-5.1V197h1.8v-22.6h-7.1V174.2z M194.5,213.3c0,1.3-1,2.3-2.3,2.3c-1.3,0-2.3-1-2.3-2.3c0-1.3,1-2.3,2.3-2.3
		C193.5,211,194.5,212.3,194.5,213.3z"/>
	<path fill="#009245" d="M172.1,174.2v22.6h2v1.8c0,0,7.1,7.1,7.9,7.9c0,1,0,27.2,0,27.2l5.1,5.1c-0.3,0.5-0.3,1.3-0.3,1.8
		c0,2.8,2.3,5.3,5.3,5.3c2.8,0,5.3-2.3,5.3-5.3s-2.3-5.3-5.3-5.3c-1.3,0-2.5,0.5-3.6,1.3c-1-1-3.6-3.6-4.1-4.1c0-1,0-27.2,0-27.2
		s-7.1-7.1-7.9-7.9c0-0.3,0-0.5,0-0.8h2.8v-22.6h-7.4V174.2z M194.2,240.5c0,1.3-1,2.3-2.3,2.3c-1.3,0-2.3-1-2.3-2.3
		c0-1.3,1-2.3,2.3-2.3C193.2,238.5,194.2,239.5,194.2,240.5z"/>
	<rect x="136.8" y="58.5" fill="#009245" width="16.5" height="15.8"/>
	<rect x="136.8" y="84.9" fill="#009245" width="16.5" height="15.8"/>
	<path fill="#009245" d="M212.5,67.1h23.1V37.6h-2.5c0,7.9,0,25.4,0,26.9c-1.8,0-15.5,0-20.6,0v-6.4h-16.3v15.3h16.3V67.1z"/>
	<rect x="204.4" y="89.7" fill="#009245" width="16.3" height="15.3"/>
	<path fill="#009245" d="M110.6,246.9c-9.7,0-54.9,0-57.2,0c0-2.3,0-66.9,0-78.1H61v-27.2H45.8v27.2h5.3v80.3h59.5v2.8h25.2v-8.1
		h-25.2V246.9z"/>
	<path fill="#009245" d="M466.3,375.5h22.9v-11.4h-8.9c1-1,1.8-2.3,1.8-3.8c0-2.8-2.3-5.3-5.3-5.3c-2.8,0-5.3,2.3-5.3,5.3
		c0,1.5,0.8,3.1,1.8,3.8h-6.9L466.3,375.5L466.3,375.5z M474.4,360c0-1.3,1-2.3,2.3-2.3c1.3,0,2.3,1,2.3,2.3s-1,2.3-2.3,2.3
		C475.4,362,474.4,361.3,474.4,360z"/>
	<rect x="470.6" y="389.2" fill="#009245" width="15.3" height="11.7"/>
	<path fill="#009245" d="M549.2,437.3c0,2.8,2.3,5.3,5.3,5.3c2.8,0,5.3-2.3,5.3-5.3c0-1.5-0.8-3.1-1.8-3.8v-14.2h-7.1v14.2
		C549.9,434.2,549.2,435.8,549.2,437.3z M556.5,437.3c0,1.3-1,2.3-2.3,2.3s-2.3-1-2.3-2.3s1-2.3,2.3-2.3S556.5,436,556.5,437.3z"/>
	<rect x="473.9" y="419.2" fill="#009245" width="7.1" height="15.8"/>
	<path fill="#009245" d="M428.4,435h7.1v-15.8h-3.8v-17.5c0,0-6.1-6.1-6.6-6.6c0-1,0-25.7,0-26.7c0.5-0.5,8.1-8.1,10.9-10.9
		c0.8,0.8,2,1,3.3,1c2.8,0,5.3-2.3,5.3-5.3c0-2.8-2.3-5.3-5.3-5.3c-2.8,0-5.3,2.3-5.3,5.3c0,0.8,0.3,1.5,0.5,2.3l-11.7,11.7v28.7
		c0,0,6.1,6.1,6.6,6.6c0,0.8,0,12.5,0,16.5h-0.8v16H428.4z M438.8,351.1c1.3,0,2.3,1,2.3,2.3s-1,2.3-2.3,2.3c-1.3,0-2.3-1-2.3-2.3
		C436.8,351.9,437.8,351.1,438.8,351.1z"/>
	<rect x="550.9" y="483.6" fill="#009245" width="9.2" height="15.8"/>
	<rect x="412.9" y="483.3" fill="#009245" width="7.1" height="15.5"/>
	<polygon fill="#009245" points="422,259.6 422,264.2 416.2,264.2 416.2,261.9 399.7,261.9 399.7,273.1 416.2,273.1 416.2,266.4 
		422,266.4 422,273.6 438.6,273.6 438.6,259.6 	"/>
	<rect x="466.3" y="194.5" fill="#009245" width="22.4" height="13.7"/>
	<path fill="#009245" d="M444.4,151h-16.8v9.2h10.7v11.9c-1.8,0.5-3.1,2-3.3,3.8h-12.2v-6.4h-16.3v16h16.3v-7.1H435
		c0.5,2.3,2.5,4.1,5.1,4.1c2.8,0,5.3-2.3,5.3-5.3c0-2.5-2-4.8-4.6-5.1v-11.7h3.8V151H444.4z M442.1,176.9c0,1.3-1,2.3-2.3,2.3
		c-1.3,0-2.3-1-2.3-2.3c0-1.3,1-2.3,2.3-2.3C441.1,174.7,442.1,175.7,442.1,176.9z"/>
	<rect x="427.4" y="137" fill="#009245" width="16.8" height="9.2"/>
	<path fill="#009245" d="M418.7,127.6c0,2.8,2.3,5.3,5.3,5.3c1.3,0,2.5-0.5,3.3-1.3v0.5h16.8v-9.2h-16.8v0.5c-1-0.8-2-1.3-3.3-1.3
		C421.3,122.5,418.7,124.8,418.7,127.6z M426.4,127.6c0,1.3-1,2.3-2.3,2.3s-2.3-1-2.3-2.3c0-1.3,1-2.3,2.3-2.3
		C425.3,125.6,426.4,126.6,426.4,127.6z"/>
	<rect x="427.4" y="109.6" fill="#009245" width="16.8" height="9.2"/>
	<rect x="427.4" y="95.8" fill="#009245" width="16.8" height="9.2"/>
	<path fill="#009245" d="M418.7,85.7c0,2.8,2.3,5.3,5.3,5.3c1.3,0,2.5-0.5,3.3-1.3v0.5h16.8v-9.2h-16.8v0.5c-1-0.8-2-1.3-3.3-1.3
		C421.3,80.3,418.7,82.9,418.7,85.7z M426.4,85.7c0,1.3-1,2.3-2.3,2.3s-2.3-1-2.3-2.3s1-2.3,2.3-2.3S426.4,84.4,426.4,85.7z"/>
	<path fill="#009245" d="M427.4,62.3h16.8v-9.2h-16.8v0.5c-1-0.8-2-1.3-3.3-1.3c-2.8,0-5.3,2.3-5.3,5.3c0,2.8,2.3,5.3,5.3,5.3
		c1.3,0,2.5-0.5,3.3-1.3V62.3z M422,57.7c0-1.3,1-2.3,2.3-2.3s2.3,1,2.3,2.3s-1,2.3-2.3,2.3C422.8,59.7,422,59,422,57.7z"/>
	<rect x="378.3" y="169.3" fill="#009245" width="16.3" height="16"/>
	<rect x="427.1" y="242.8" fill="#009245" width="16" height="9.2"/>
	<path fill="#009245" d="M514.3,141.9c0-2.5-1.8-4.6-4.1-5.1V37.6h-2.5V137c-2.3,0.5-4.1,2.5-4.1,5.1c0,2.8,2.3,5.3,5.3,5.3
		C512,147.2,514.3,144.9,514.3,141.9z M506.9,141.9c0-1.3,1-2.3,2.3-2.3s2.3,1,2.3,2.3c0,1.3-1,2.3-2.3,2.3
		C507.7,144.2,506.9,143.1,506.9,141.9z"/>
	<path fill="#009245" d="M480.3,483.3H478c0-0.8,0-1.3,0-1.8c0.8-0.8,8.9-7.6,8.9-7.6s0-62.5,0-63.6c0.8-0.8,7.6-7.6,7.6-7.6v-45
		c1.8-0.5,3.3-2,3.8-3.8h3.8v-136c0,0-6.4-6.4-7.1-7.1c0-0.8,0-17.3,0-21.9c2.3-0.5,4.1-2.5,4.1-5.1s-1.8-4.6-4.1-5.1V83.1
		c2.3-0.5,4.1-2.5,4.1-5.1s-1.8-4.6-4.1-5.1V37.6h-2.5V73c-2.3,0.5-4.1,2.5-4.1,5.1s1.8,4.6,4.1,5.1v95.6c-2.3,0.5-4.1,2.5-4.1,5.1
		s1.8,4.6,4.1,5.1v22.9c0,0,6.4,6.4,7.1,7.1c0,1,0,130.7,0,133c-0.5,0-1,0-1.5,0c-0.5-2.3-2.5-4.1-5.1-4.1c-2.8,0-5.3,2.3-5.3,5.3
		c0,2.5,1.8,4.6,4.1,5.1c0,5.8,0,43,0,43.7c-0.8,0.8-7.6,7.6-7.6,7.6s0,62.3,0,63.3c-0.8,0.8-8.9,7.6-8.9,7.6v2.8h-2.3v15.5h7.1
		v-15.5H480.3z M491.7,78.1c0-1.3,1-2.3,2.3-2.3s2.3,1,2.3,2.3s-1,2.3-2.3,2.3C492.7,80.1,491.7,79.1,491.7,78.1z M491.7,183.8
		c0-1.3,1-2.3,2.3-2.3s2.3,1,2.3,2.3c0,1.3-1,2.3-2.3,2.3C492.7,185.8,491.7,184.8,491.7,183.8z M490.9,352.9c0-1.3,1-2.3,2.3-2.3
		c1.3,0,2.3,1,2.3,2.3s-1,2.3-2.3,2.3C491.9,355.2,490.9,354.2,490.9,352.9z"/>
	<path fill="#009245" d="M442.6,435h7.1v-15.8h-2.3c0-0.5,0-0.8,0-1c0.8-0.8,8.1-8.1,8.1-8.1s0-54.2,0-55.2
		c0.8-0.8,30.8-28.7,30.8-28.7v-86.4c0,0-16,0-17,0c-0.5-0.5-4.6-4.6-5.1-5.1c0-1,0-48.6,0-49.6c0.8-0.8,14.5-14.5,14.5-14.5V63.8
		h6.1V52.4h-14.5v11.4h6.1c0,13.5,0,105,0,105.8c-0.8,0.8-14.5,14.5-14.5,14.5v51.6l6.6,6.6c0,0,13.5,0,15.5,0c0,2.3,0,81.6,0,82.6
		c-0.8,0.8-30.8,28.7-30.8,28.7s0,54.2,0,55.2c-0.8,0.8-8.1,8.1-8.1,8.1v2h-2.3v16H442.6z"/>
	<path fill="#009245" d="M465.8,435v-15.8h-2.5c0-7.9,0-59.2,0-60c0.8-0.8,29-27.7,29-27.7v-97.4c0,0-11.7,0-13.5,0
		c0-0.5,0-1.3,0-1.8h6.9v-11.7h-15.3v11.7h6.1v4.1c0,0,11.7,0,13.5,0c0,2.3,0,92.8,0,93.8c-0.8,0.8-29,27.7-29,27.7v61h-2v15.8h6.9
		V435z"/>
	<path fill="#009245" d="M539.7,250.4c5.3,0,9.9-4.3,9.9-9.9c0-5.3-4.3-9.9-9.9-9.9c-5.1,0-9.2,3.8-9.9,8.6h-23.1
		c0,0,0,163.5,0,164.5c-0.5,0.5-12.2,12.2-15.3,15.3h-2.5v15.8h7.1V419h-1l14.2-14.2c0,0,0-160.7,0-163.2c1.8,0,16.3,0,20.8,0
		C530.6,246.6,534.7,250.4,539.7,250.4z M533.6,240.5c0-3.3,2.8-6.1,6.1-6.1c3.3,0,6.1,2.8,6.1,6.1c0,3.3-2.8,6.1-6.1,6.1
		S533.6,243.8,533.6,240.5z"/>
	<path fill="#009245" d="M539.7,278.1c5.3,0,9.9-4.3,9.9-9.9c0-5.3-4.3-9.9-9.9-9.9c-5.1,0-9.2,3.8-9.9,8.9h-13.5
		c0,0,0,140.8,0,141.9c-0.8,0.8-10.2,10.2-10.2,10.2l0,0h-1.8V435h7.1v-15.8h-1.8l9.2-9.2c0,0,0-138.1,0-140.3c1.5,0,7.9,0,10.9,0
		C530.6,274.6,534.9,278.1,539.7,278.1z M533.6,268.5c0-3.3,2.8-6.1,6.1-6.1c3.3,0,6.1,2.8,6.1,6.1s-2.8,6.1-6.1,6.1
		S533.6,271.8,533.6,268.5z"/>
	<path fill="#009245" d="M566.7,349.3L555,337.6h-32.5V419h-2v15.8h7.1V419H525c0-8.4,0-76.8,0-79.1c2.3,0,28,0,29,0
		c0.5,0.5,8.6,8.6,11.7,11.7h-16.3c-0.5-4.8-4.8-8.6-9.9-8.6c-5.3,0-9.9,4.3-9.9,9.9c0,5.3,4.3,9.9,9.9,9.9c5.1,0,9.2-3.8,9.9-8.6
		h17v-4.8H566.7z M539.7,359.5c-3.3,0-6.1-2.8-6.1-6.1c0-3.3,2.8-6.1,6.1-6.1c3.3,0,6.1,2.8,6.1,6.1
		C546.1,356.7,543.3,359.5,539.7,359.5z"/>
	<path fill="#009245" d="M566.7,379.8h-17c-0.5-4.8-4.8-8.6-9.9-8.6c-5.3,0-9.9,4.3-9.9,9.9c0,5.3,4.3,9.9,9.9,9.9
		c5.1,0,9.2-3.8,9.9-8.6h17V379.8z M539.7,387.2c-3.3,0-6.1-2.8-6.1-6.1c0-3.3,2.8-6.1,6.1-6.1c3.3,0,6.1,2.8,6.1,6.1
		C546.1,384.4,543.3,387.2,539.7,387.2z"/>
	<path fill="#009245" d="M549.7,99.9c0-5.3-4.3-9.9-9.9-9.9c-5.1,0-9.4,4.1-9.9,9.2c-1.5,0-3.8,0-4.8,0c0-2.3,0-37.9,0-40.2
		c2.3,0,30.8,0,30.8,0V37.6h-2.5c0,5.6,0,17.3,0,19.1c-2.3,0-30.8,0-30.8,0v45h7.4c0.8,4.8,4.8,8.4,9.7,8.4
		C545.3,109.8,549.7,105.5,549.7,99.9z M533.6,99.9c0-3.3,2.8-6.1,6.1-6.1c3.3,0,6.1,2.8,6.1,6.1c0,3.3-2.8,6.1-6.1,6.1
		C536.4,106.3,533.6,103.5,533.6,99.9z"/>
	<path fill="#009245" d="M549.7,155.6c0-5.1-4.1-9.4-8.9-9.9c0-4.3,0-14.7,0-16.5c2.3,0,23.9,0,23.9,0V73h2.3v-2.5h-2.3V37.4h-2.5
		c0,6.1,0,18.8,0,33.1h-12.5c-0.5-4.8-4.8-8.6-9.9-8.6c-5.3,0-9.9,4.3-9.9,9.9c0,5.3,4.3,9.9,9.9,9.9c5.1,0,9.2-3.8,9.9-8.6h12.5
		c0,24.9,0,52.6,0,53.9c-2.3,0-23.9,0-23.9,0v19.1c-4.8,0.8-8.4,4.8-8.4,9.7c0,5.3,4.3,9.9,9.9,9.9
		C545.3,165.5,549.7,160.9,549.7,155.6z M539.7,77.8c-3.3,0-6.1-2.8-6.1-6.1c0-3.3,2.8-6.1,6.1-6.1c3.3,0,6.1,2.8,6.1,6.1
		C546.1,75,543.3,77.8,539.7,77.8z M533.6,155.6c0-3.3,2.8-6.1,6.1-6.1c3.3,0,6.1,2.8,6.1,6.1c0,3.3-2.8,6.1-6.1,6.1
		C536.4,161.7,533.6,158.9,533.6,155.6z"/>
	<path fill="#009245" d="M566.7,140.3H554c0,0,0,67.9,0,70.4c-1,0-2.8,0-4.3,0c-0.5-5.1-4.8-8.9-9.9-8.9c-5.3,0-9.9,4.3-9.9,9.9
		c0,5.3,4.3,9.9,9.9,9.9c4.8,0,9.2-3.6,9.7-8.4h6.9c0,0,0-67.9,0-70.4c1.3,0,6.6,0,10.2,0v-2.5H566.7z M539.7,217.9
		c-3.3,0-6.1-2.8-6.1-6.1c0-3.3,2.8-6.1,6.1-6.1c3.3,0,6.1,2.8,6.1,6.1C546.1,215.1,543.3,217.9,539.7,217.9z"/>
	<path fill="#009245" d="M549.7,326.4h17v-2.5h-17c-0.5-4.8-4.8-8.6-9.9-8.6c-5.1,0-9.2,3.8-9.9,8.6c-1.8,0-4.6,0-5.6,0
		c0-2.3,0-37.9,0-40.2c2.3,0,31,0,31,0V224c0,0-35.1,0-37.4,0c0-0.8,0-16.5,0-38.9h11.9c0.5,4.8,4.8,8.6,9.9,8.6
		c5.3,0,9.9-4.3,9.9-9.9c0-5.3-4.3-9.9-9.9-9.9c-5.1,0-9.2,3.8-9.9,8.6h-11.9c0-49.3,0-127.6,0-145.2h-2.5v188.9c0,0,35.1,0,37.4,0
		c0,2.3,0,52.6,0,54.9c-2.3,0-31,0-31,0v45h8.1c0.5,4.8,4.8,8.6,9.9,8.6C544.8,335.1,549.2,331.3,549.7,326.4z M539.7,177.7
		c3.3,0,6.1,2.8,6.1,6.1c0,3.3-2.8,6.1-6.1,6.1c-3.3,0-6.1-2.8-6.1-6.1C533.6,180.5,536.4,177.7,539.7,177.7z M533.6,325.2
		c0-3.3,2.8-6.1,6.1-6.1c3.3,0,6.1,2.8,6.1,6.1s-2.8,6.1-6.1,6.1C536.4,331.5,533.6,328.7,533.6,325.2z"/>
	<rect x="536.9" y="254" fill="#009245" width="6.9" height="2.3"/>
	<path fill="#009245" d="M566.7,295.4h-17c-0.5-4.8-4.8-8.6-9.9-8.6c-5.3,0-9.9,4.3-9.9,9.9c0,5.3,4.3,9.9,9.9,9.9
		c5.1,0,9.2-3.8,9.9-8.6h17V295.4z M539.7,302.8c-3.3,0-6.1-2.8-6.1-6.1s2.8-6.1,6.1-6.1c3.3,0,6.1,2.8,6.1,6.1
		C546.1,300,543.3,302.8,539.7,302.8z"/>
	<path fill="#009245" d="M534.2,416.9c0,2.5,1.5,4.3,3.8,5.1c0,4.1,0,15.5,0,16.3c-0.8,0.8-31,29.2-31,29.2v15.8h-2.3v15.5h7.1
		v-15.5h-2.3c0-3.8,0-14,0-14.7c0.8-0.8,31-29.2,31-29.2V422c2.3-0.5,4.1-2.5,4.1-5.1c0-2.8-2.3-5.3-5.3-5.3
		C536.4,411.6,534.2,413.9,534.2,416.9z M541.5,416.9c0,1.3-1,2.3-2.3,2.3s-2.3-1-2.3-2.3s1-2.3,2.3-2.3S541.5,415.7,541.5,416.9z"
		/>
	<path fill="#009245" d="M540,485.1c2.5-0.3,4.6-2.5,4.6-5.1c0-2.8-2.3-5.3-5.3-5.3c-2.8,0-5.3,2.3-5.3,5.3c0,2.3,1.5,4.1,3.3,4.8
		c0,0.3,0,0.5,0,0.8h-9.7v-2.5h-7.1v15.5h7.1v-10.4h9.7 M541.5,480c0,1.3-1,2.3-2.3,2.3s-2.3-1-2.3-2.3c0-1.3,1-2.3,2.3-2.3
		C540.5,477.7,541.5,478.7,541.5,480z"/>
	<path fill="#009245" d="M523.2,515.1h-29.7v27.5H508v9.9c-2,0.8-3.6,2.5-3.6,4.8c0,2.8,2.3,5.3,5.3,5.3c2.8,0,5.3-2.3,5.3-5.3
		c0-2.5-2-4.8-4.6-5.1v-9.7h12.7L523.2,515.1L523.2,515.1z M511.8,557.5c0,1.3-1,2.3-2.3,2.3c-1.3,0-2.3-1-2.3-2.3
		c0-1.3,1-2.3,2.3-2.3C511,555.5,511.8,556.3,511.8,557.5z"/>
	<path fill="#009245" d="M458.1,498.8h2.8v31.5h19.3c0.5,2.3,2.5,4.1,5.1,4.1c2.8,0,5.3-2.3,5.3-5.3c0-2.8-2.3-5.3-5.3-5.3
		c-2.5,0-4.6,1.8-5.1,4.1c-3.8,0-15,0-16.8,0c0-1.3,0-15.5,0-29.2h1.8v-15.5h-1.8c0-5.6,0-9.4,0-9.7c0.5-0.5,2.3-2.3,3.3-3.3
		c0.8,0.8,2,1,3.1,1c2.8,0,5.3-2.3,5.3-5.3s-2.3-5.3-5.3-5.3c-2.8,0-5.3,2.3-5.3,5.3c0,0.8,0.3,1.5,0.5,2.3l-4.3,4.3v10.7h-2.8v15.8
		H458.1z M485.3,527c1.3,0,2.3,1,2.3,2.3s-1,2.3-2.3,2.3c-1.3,0-2.3-1-2.3-2.3C483.1,527.8,484.1,527,485.3,527z M467.8,466
		c0-1.3,1-2.3,2.3-2.3s2.3,1,2.3,2.3s-1,2.3-2.3,2.3C468.6,468.3,467.8,467.3,467.8,466z"/>
	<path fill="#009245" d="M495.5,483.3h-7.1v15.5h2.5c0,3.1,0,8.4,0,9.2c-0.5,0.5-2,2-3.3,3.3c-0.8-0.5-1.5-0.8-2.5-0.8
		c-2.8,0-5.3,2.3-5.3,5.3c0,2.8,2.3,5.3,5.3,5.3c2.8,0,5.3-2.3,5.3-5.3c0-1-0.3-2-1-3.1l3.8-3.8v-9.9h2v-15.8H495.5z M487.4,515.6
		c0,1.3-1,2.3-2.3,2.3c-1.3,0-2.3-1-2.3-2.3s1-2.3,2.3-2.3C486.6,513.3,487.4,514.3,487.4,515.6z"/>
	<path fill="#009245" d="M448.2,509.7v-11.2h1.5v-15.5h-1.5v-32c0,0-6.6-6.6-7.1-7.1c0-1,0-49.8,0-58c2-0.8,3.3-2.5,3.3-4.8
		c0-2.8-2.3-5.3-5.3-5.3c-2.8,0-5.3,2.3-5.3,5.3c0,2.8,2,4.8,4.8,5.1v58.7c0,0,6.6,6.6,7.1,7.1c0,0.5,0,16,0,31h-3.1v15.5h3.1
		c0,5.1,0,9.2,0,10.9c-2.5,0.5-4.3,2.5-4.3,5.1s1.8,4.6,4.3,5.1v46h2.5c0-1,0-37.4,0-46.3c2.3-0.5,3.8-2.5,3.8-5.1
		C452,512.5,450.3,510.5,448.2,509.7z M438.8,383.1c-1.3,0-2.3-1-2.3-2.3s1-2.3,2.3-2.3c1.3,0,2.3,1,2.3,2.3
		S440.1,383.1,438.8,383.1z M446.7,517.1c-1.3,0-2.3-1-2.3-2.3s1-2.3,2.3-2.3s2.3,1,2.3,2.3S448,517.1,446.7,517.1z"/>
	<path fill="#009245" d="M283.5,244.8c0-1,0-14.2,0-14.2s-4.8-13-5.6-13.7c0-1,0-121,0-121s-8.4-8.4-8.9-8.9c0-0.8,0-17,0-22.4h-2.5
		V88c0,0,8.4,8.4,8.9,8.9c0,1,0,121,0,121s4.8,13,5.6,13.7c0,1,0,14.2,0,14.2"/>
	<path fill="#009245" d="M145.4,225.8c0,0-59,0-61.3,0c0-2.3,0-31.3,0-33.3c2.3,0,47,0,47,0v-65.1H88.7c-0.5-2-2-3.6-3.8-4.1V37.6
		h-2.5v85.9c-2,0.5-3.6,2-3.8,4.1h-43l-0.3,128.9h110.1C145.4,256.5,145.4,225.8,145.4,225.8z M128.4,129.9c0,2.3,0,57.7,0,60
		c-2.3,0-47,0-47,0v38.4c0,0,59,0,61.3,0c0,1,0,6.4,0,11.7c-7.9,0-71.2,0-73.5,0c0-2.3,0-58.7,0-61c2,0,15.3,0,15.3,0v-10.2h7.1
		v-27.2h-6.6v-7.9c1.8-0.5,3.3-2,3.8-3.8C95.6,129.9,126.4,129.9,128.4,129.9z M83.4,126.4c1.3,0,2.3,1,2.3,2.3c0,1.3-1,2.3-2.3,2.3
		s-2-1.3-2-2.3C81.4,127.4,82.4,126.4,83.4,126.4z M37.9,254c0-2.3,0.3-121.8,0.3-124.1c2,0,34.3,0,40.4,0c0.5,1.8,2,3.3,3.8,3.8
		c0,1,0,4.1,0,7.9H76v27.2h6.4c0,4.1,0,7.1,0,7.6c-2,0-15.3,0-15.3,0v65.8h75.8c0,5.3,0,10.7,0,11.7C140.6,254,40.2,254,37.9,254z"
		/>
	<path fill="#009245" d="M114.9,186.1v-17h7.1v-27.5h-15.5v27.2h6.1c0,3.3,0,13,0,14.7c-2.3,0-38.9,0-38.9,0v52.1h37.1v2.8H136v-8.1
		h-25.2v2.8c-8.1,0-32.8,0-34.6,0c0-2.3,0-45,0-47.3C78.3,186.1,114.9,186.1,114.9,186.1z"/>
	<path fill="#009245" d="M159.2,275.1c0,1,0,26.2,0,30.8c-2.5,0.5-4.3,2.5-4.3,5.1c0,2.8,2.3,5.3,5.3,5.3c2.8,0,5.3-2.3,5.3-5.3
		c0-2.3-1.5-4.3-3.8-5.1v-31.8l-14-13h-11.9v-3.1h-25.2v8.1h25.2v-2.8c3.3,0,10.2,0,10.9,0C147.2,263.9,158.4,274.3,159.2,275.1z
		 M162.5,310.9c0,1.3-1,2.3-2.3,2.3c-1.3,0-2.3-1-2.3-2.3s1-2.3,2.3-2.3C161.4,308.6,162.5,309.7,162.5,310.9z"/>
	<path fill="#009245" d="M81.6,310.9v58.2c-2,0.8-3.6,2.5-3.6,4.8c0,2.8,2.3,5.3,5.3,5.3c2.8,0,5.3-2.3,5.3-5.3c0-2.5-2-4.8-4.6-5.1
		c0-8.4,0-56.2,0-56.9c0.8-0.8,19.3-19.3,19.8-19.8c0.8,0,4.6,0,6.6,0v3.3h25.2v-8.1h-25.2v2.5H103L81.6,310.9z M85.4,374.2
		c0,1.3-1,2.3-2.3,2.3s-2.3-1-2.3-2.3c0-1.3,1-2.3,2.3-2.3C84.4,371.9,85.4,373,85.4,374.2z"/>
	<path fill="#009245" d="M177.5,389c0-0.8,0-8.9,0-11.7h2.3v-22.4h-7.4v22.4h2.8V390c0,0,5.8,5.8,6.4,6.4c0,1,0,66.4,0,68.9
		c-2.3,0-28.7,0-29.5,0c-0.8-0.8-20.8-20.8-21.4-21.4c0-0.3,0-0.8,0-1.3h3.1v-22.4h-7.4v22.4h2v2.3l22.9,22.9h33.1v-72.2
		C183.8,395.3,178.2,389.5,177.5,389z"/>
	<path fill="#009245" d="M188.6,148.7c0-2.8-2.3-5.3-5.3-5.3c-1,0-2,0.3-3.1,1c-1.3-1.3-3.1-3.1-3.6-3.6c0-1,0-86.7,0-103.5h-2.5
		v104.5l4.3,4.3c-0.5,0.8-0.8,1.5-0.8,2.5c0,2.8,2.3,5.3,5.3,5.3C186.1,154.1,188.6,151.8,188.6,148.7z M181,148.7
		c0-1.3,1-2.3,2.3-2.3c1.3,0,2.3,1,2.3,2.3c0,1.3-1,2.3-2.3,2.3C182,151,181,150,181,148.7z"/>
	<rect x="121.3" y="37.6" fill="#009245" width="16.8" height="5.8"/>
	<rect x="150.8" y="37.6" fill="#009245" width="18.1" height="5.8"/>
	<rect x="180" y="37.6" fill="#009245" width="17.3" height="5.6"/>
	<path fill="#009245" d="M193.5,52.4h26.7v-9.2h8.6v-5.6h-17.3v5.6h6.1c0,2.3,0,5.6,0,6.9c-2,0-19.8,0-24.2,0
		c-0.5-2.3-2.5-4.3-5.1-4.3c-2.8,0-5.3,2.3-5.3,5.3c0,2.8,2.3,5.3,5.3,5.3C190.9,56.2,193,54.7,193.5,52.4z M186.4,51.1
		c0-1.3,1-2.3,2.3-2.3c1.3,0,2.3,1,2.3,2.3s-1,2.3-2.3,2.3C187.4,53.1,186.4,52.1,186.4,51.1z"/>
	<path fill="#009245" d="M273.6,115.9c0-2.5-1.8-4.8-4.3-5.1v-6.4c0,0-7.1-7.1-7.6-7.6c0-0.8,0-27.2,0-34.8h-2.5v35.8
		c0,0,7.1,7.1,7.6,7.6c0,0.8,0,2.8,0,5.3c-2.3,0.8-3.8,2.5-3.8,5.1c0,2.8,2.3,5.3,5.3,5.3C271.3,121.3,273.6,118.7,273.6,115.9z
		 M266.2,115.9c0-1.3,1-2.3,2.3-2.3s2.3,1,2.3,2.3s-1,2.3-2.3,2.3C267.2,118,266.2,117.2,266.2,115.9z"/>
	<path fill="#009245" d="M266.7,219.7c0-2.3-1.5-4.3-3.6-4.8v-44c0,0-7.1-7.1-7.9-7.9c0-1,0-86.4,0-104h-2.5v105
		c0,0,7.1,7.1,7.9,7.9c0,1,0,36.6,0,42.5c-2.5,0.3-4.6,2.5-4.6,5.1c0,2.8,2.3,5.3,5.3,5.3C264.4,224.7,266.7,222.5,266.7,219.7z
		 M259.3,219.7c0-1.3,1-2.3,2.3-2.3c1.3,0,2.3,1,2.3,2.3s-1,2.3-2.3,2.3C260.3,221.9,259.3,220.7,259.3,219.7z"/>
	<path fill="#009245" d="M413.4,554.2c2.3-0.5,4.1-2.5,4.1-5.1c0-2.8-2.3-5.3-5.3-5.3c-1.5,0-2.8,0.5-3.6,1.5
		c-4.1-4.1-9.2-9.2-9.9-9.9c0-1,0-95.1,0-106.8c2.3-0.5,4.1-2.5,4.1-5.1c0-2.8-2.3-5.3-5.3-5.3c-3.1,0-5.3,2.3-5.3,5.3
		c0,2.5,1.8,4.6,4.1,5.1v107.8l10.9,10.9c-0.3,0.5-0.3,1-0.3,1.5c0,2.5,1.8,4.6,4.1,5.1 M395.1,423.8c0-1.3,1-2.3,2.3-2.3
		s2.3,1,2.3,2.3s-1,2.3-2.3,2.3C396.1,425.8,395.1,425.1,395.1,423.8z M410.1,549.2c0-1.3,1-2.3,2.3-2.3c1.3,0,2.3,1,2.3,2.3
		c0,1.3-1,2.3-2.3,2.3C411.1,551.4,410.1,550.4,410.1,549.2z"/>
	<path fill="#009245" d="M468.3,155.8c0-2.8-2-4.8-4.6-5.1V78.6c0,0-14-12.7-14.7-13.5c0-0.8,0-19.6,0-27.7h-2.5v28.7
		c0,0,14,12.7,14.7,13.5c0,1,0,61.8,0,71.2c-2,0.8-3.6,2.5-3.6,4.8c0,2.8,2.3,5.3,5.3,5.3C466,161.2,468.3,158.9,468.3,155.8z
		 M460.9,155.8c0-1.3,1-2.3,2.3-2.3s2.3,1,2.3,2.3c0,1.3-1,2.3-2.3,2.3S460.9,157.1,460.9,155.8z"/>
	<path fill="#009245" d="M467.8,248.1c0-2.8-2.3-5.3-5.3-5.3c-1,0-1.8,0.3-2.5,0.8c-1.3-1.3-3.3-3.3-3.8-3.8c0-1,0-60.3,0-61
		c0.8-0.8,17-17,17-17V72.2c0,0-8.6-8.6-9.2-9.2c0-0.8,0-18.3,0-25.4h-2.5v26.4c0,0,8.6,8.6,9.2,9.2c0,1,0,86.2,0,87.2
		c-0.8,0.8-17,17-17,17v63.1l4.6,4.6c-0.5,0.8-0.8,1.8-0.8,2.8c0,2.8,2.3,5.3,5.3,5.3C465.3,253.2,467.8,250.9,467.8,248.1z
		 M460.2,248.1c0-1.3,1-2.3,2.3-2.3c1.3,0,2.3,1,2.3,2.3c0,1.3-1,2.3-2.3,2.3C461.2,250.2,460.2,249.2,460.2,248.1z"/>
	<path fill="#009245" d="M406.8,208.7c0.5-0.8,0.8-1.8,0.8-2.8c0-2.8-2.3-5.3-5.3-5.3c-2.8,0-5.3,2.3-5.3,5.3c0,2.8,2.3,5.3,5.3,5.3
		c1,0,1.8-0.3,2.5-0.8l2.3,2.3c0,0,8.1,0,8.9,0c0.8,0.8,6.9,6.9,6.9,6.9h4.1v4.8h16v-9.2h-15.8v1.8c-1.3,0-2.5,0-3.1,0
		c-0.5-0.5-4.6-4.6-6.1-6.1c1.8-0.5,3.1-2,3.3-3.8h5.8v3.3h16v-9.2h-16v3.3h-5.8c-0.5-2.3-2.5-3.8-5.1-3.8c-2.8,0-5.3,2.3-5.3,5.3
		c0,1.8,0.8,3.3,2.3,4.3c-2,0-4.3,0-4.8,0C408.1,210,407.3,209.5,406.8,208.7z M400.4,205.9c0-1.3,1-2.3,2.3-2.3s2.3,1,2.3,2.3
		c0,1.3-1,2.3-2.3,2.3C401.2,208.2,400.4,207.2,400.4,205.9z M413.9,205.9c0-1.3,1-2.3,2.3-2.3c1.3,0,2.3,1,2.3,2.3
		c0,1.3-1,2.3-2.3,2.3C414.9,208.2,413.9,207.2,413.9,205.9z"/>
	<path fill="#009245" d="M413.4,222.5c0.8-1,1.3-2,1.3-3.3c0-2.8-2.3-5.3-5.3-5.3c-2.8,0-5.3,2.3-5.3,5.3c0,2.8,2.3,5.3,5.3,5.3
		c0.8,0,1.5-0.3,2.3-0.5l11.7,11.7h3.8v2.5h16v-9.2h-16v4.1c-1,0-2.3,0-2.8,0C423.8,232.9,415.9,225.3,413.4,222.5z M407,219.4
		c0-1.3,1-2.3,2.3-2.3c1.3,0,2.3,1,2.3,2.3c0,1.3-1,2.3-2.3,2.3C408.1,221.4,407,220.4,407,219.4z"/>
	<path fill="#009245" d="M405.8,352.1V512c0,0,16,16,16.5,16.5c0,0.8,0,20.1,0,24.2c-2.3,0.5-4.1,2.5-4.1,5.1c0,2.8,2.3,5.3,5.3,5.3
		s5.3-2.3,5.3-5.3c0-2.5-1.8-4.6-4.1-5.1v-25.2c0,0-16-16-16.5-16.5c0-0.5,0-33.3,0-69.2h9.7V435h2v-15.8h-7.1V435h2.5
		c0,1.5,0,3.6,0,4.6c-1.3,0-5.3,0-7.4,0c0-41.7,0-85.9,0-86.4c0.8-0.8,7.6-7.6,7.6-7.6s0-24.9,0-26.9c2.3,0,31.3,0,31.3,0v-23.6
		c2.8-0.3,4.8-2.5,4.8-5.3c0-2.5-1.8-4.6-4.1-5.1c0-1.8,0-5.6,0-6.9c0.8,0,2.5,0,4.1,0v6.9h16.5v-14h-16.5v4.8h-6.6v9.4
		c-2.3,0.5-4.1,2.5-4.1,5.1c0,2,1.3,4.1,3.1,4.8c0,4.3,0,19.6,0,21.6c-2.3,0-31.3,0-31.3,0s0,27.5,0,28.5
		C412.9,345,405.8,352.1,405.8,352.1z M425.6,557.8c0,1.3-1,2.3-2.3,2.3c-1.3,0-2.3-1-2.3-2.3s1-2.3,2.3-2.3
		C424.6,555.8,425.6,556.8,425.6,557.8z M444.4,289.6c0-1.3,1-2.3,2.3-2.3s2.3,1,2.3,2.3c0,1.3-1,2.3-2.3,2.3
		C445.4,291.6,444.4,290.6,444.4,289.6z"/>
	<path fill="#009245" d="M420.3,286.3c2.3-0.8,3.8-2.5,3.8-5.1c0-2.8-2.3-5.3-5.3-5.3c-2.8,0-5.3,2.3-5.3,5.3c0,2.5,1.8,4.8,4.3,5.1
		v8.1h-1.8v-7.1h-16.5v11.4h16.5v-1.8h5.8v6.4h16.5v-14H422v5.1h-1.8V286.3z M416.7,281.4c0-1.3,1-2.3,2.3-2.3s2.3,1,2.3,2.3
		s-1,2.3-2.3,2.3C417.5,283.5,416.7,282.5,416.7,281.4z"/>
	<path fill="#009245" d="M383.6,284.2v4.1c-2,0.8-3.6,2.5-3.6,5.1c0,2.5,1.5,4.3,3.8,5.1v10.9l0.3,3.1v17.8h25.4v-18.1h-22.1
		c-1.5-1.5-0.8-3.3-1-3.8c0-0.8,0-7.1,0-9.7c2.3-0.5,4.1-2.5,4.1-5.1c0-2.5-2-4.8-4.3-5.1v-3.8h7.6v-10.9h-7.6v-3.1
		c2.5-0.5,4.3-2.5,4.3-5.1c0-2.5-1.8-4.6-4.1-5.1v-22.4l6.1,0.3v-9.7h-16v9.2h7.4c0,0,0,18.6,0,22.1c-2.3,0.5-4.1,2.5-4.1,5.1
		c0,2.3,1.5,4.3,3.6,5.1v3.3h-6.1v10.9h6.4V284.2z M387.5,293.1c0,1.3-1,2.3-2.3,2.3s-2.3-1-2.3-2.3c0-1.3,1-2.3,2.3-2.3
		C386.4,291.1,387.5,292.1,387.5,293.1z M383.1,265.2c0-1.3,1-2.3,2.3-2.3c1.3,0,2.3,1,2.3,2.3c0,1.3-1,2.3-2.3,2.3
		C384.2,267.2,383.1,266.2,383.1,265.2z"/>
	<path fill="#009245" d="M153.6,552.2c0-2.8-2.3-5.3-5.3-5.3c-2.8,0-5.3,2.3-5.3,5.3c0,3.1,2.3,5.3,5.3,5.3S153.6,555,153.6,552.2z
		 M146.2,552.2c0-1.3,1-2.3,2.3-2.3c1.3,0,2.3,1,2.3,2.3c0,1.3-1,2.3-2.3,2.3C146.9,554.2,146.2,553.5,146.2,552.2z"/>
	<path fill="#009245" d="M95.1,560.3v2c-5.1,0-25.2,0-25.9,0c-0.5-0.5-8.4-12.7-9.2-13.2v-13.7c0,0-5.6-5.6-6.4-6.4
		c0-1,0-231.1,0-232.1c0.5-0.5,14.7-14.7,18.3-18.3c1,1.3,2.3,2,4.1,2c2.8,0,5.3-2.3,5.3-5.3S79.1,270,76,270
		c-2.8,0-5.3,2.3-5.3,5.3c0,0.3,0,0.8,0,1l-19.6,19.6v234.2c0,0,5.6,5.6,6.4,6.4c0,1,0,12.7,0,12.7l10.4,15.8h26.9v2.3h24.7v-6.9
		H95.1z M76,273.3c1.3,0,2.3,1,2.3,2.3s-1,2.3-2.3,2.3s-2.3-1-2.3-2.3C74,274.3,75,273.3,76,273.3z"/>
	<path fill="#009245" d="M251.7,458.9c0,2.5,1.8,4.6,4.1,5.1v13c-2.3,0.5-4.1,2.5-4.1,5.1c0,2.8,2.3,5.3,5.3,5.3
		c2.8,0,5.3-2.3,5.3-5.3c0-2.5-1.8-4.6-4.1-5.1v-13c2.3-0.5,4.1-2.5,4.1-5.1c0-2.8-2.3-5.3-5.3-5.3
		C254.2,453.6,251.7,456.1,251.7,458.9z M259.3,482c0,1.3-1,2.3-2.3,2.3c-1.3,0-2.3-1-2.3-2.3c0-1.3,1-2.3,2.3-2.3
		C258.3,480,259.3,480.8,259.3,482z M259.3,458.9c0,1.3-1,2.3-2.3,2.3c-1.3,0-2.3-1-2.3-2.3s1-2.3,2.3-2.3
		C258.3,456.9,259.3,457.6,259.3,458.9z"/>
	<path fill="#009245" d="M143.6,499.6c0,2.5,1.8,4.6,4.1,5.1v13c-2.3,0.5-4.1,2.5-4.1,5.1c0,2.8,2.3,5.3,5.3,5.3
		c2.8,0,5.3-2.3,5.3-5.3c0-2.5-1.8-4.6-4.1-5.1v-13c2.3-0.5,4.1-2.5,4.1-5.1c0-2.8-2.3-5.3-5.3-5.3
		C146.2,494.2,143.6,496.5,143.6,499.6z M151.3,522.7c0,1.3-1,2.3-2.3,2.3c-1.3,0-2.3-1-2.3-2.3s1-2.3,2.3-2.3
		C150.3,520.4,151.3,521.4,151.3,522.7z M151.3,499.6c0,1.3-1,2.3-2.3,2.3c-1.3,0-2.3-1-2.3-2.3c0-1.3,1-2.3,2.3-2.3
		C150.3,497.3,151.3,498.3,151.3,499.6z"/>
</g>
<g id="stur">
	<path fill="#FFFFFF" d="M31.5,697.1c1,0,2.3,0.8,2.8,1.8c4.3,10.7,13,29.2,37.6,29.2c17.3,0,28.5-10.2,28.5-25.2
		c0-23.6-29.7-22.4-52.1-36.1c-9.7-5.8-15.5-14-15.5-25.9c0-20.8,16.5-34.3,39.7-34.3c10.9,0,22.4,5.8,24.7,5.8c1,0,2.8-1.5,4.1-1.5
		c1,0,2.3,0.5,2.5,1.5c1.3,8.1,3.6,21.4,3.6,23.9c0,3.8-1.3,4.8-2.3,4.8c-1.3,0-1.8-0.8-2.3-2.5c-4.3-10.7-6.4-11.9-11.2-16.5
		c-6.4-5.8-14.5-8.4-22.4-8.4c-13.5,0-24.9,7.1-24.9,19.6c0,28.2,39.7,20.3,60.8,43.5c4.1,4.6,6.9,10.7,6.9,18.8
		c0,25.4-18.1,40.2-39.9,40.2c-14.5,0-23.1-0.8-33.8-6.6c-3.6-2-8.4-26.9-8.4-28.5C29,698.1,30.3,697.1,31.5,697.1z"/>
	<path fill="#FFFFFF" d="M143.4,613.7c0.5-3.8,0.3-6.1,5.3-6.1c11.9,0,10.4,1.5,48.3,1.5c25.4,0,43.7-0.3,52.9-0.8
		c0.3,0,0.8-0.3,1.3-0.3c2.8,0,3.3,2.5,3.3,3.1c0,2,1,12.7,1,14.2c0,6.1-0.5,6.6-2.8,6.6c-0.3,0-1.3-0.3-1.8-2
		c-2.3-8.1-2.8-11.7-17.3-11.7H211c-5.6,0-6.1,0.8-6.1,11.2v8.6c0,40.9-0.5,48.3-0.5,64.3c0,4.6-0.3,8.1-0.3,11.4
		c0,4.8,0.3,7.9,2.3,9.9c6.6,6.6,14.5,3.1,14.5,7.6c0,2.8-1.3,3.1-4.1,3.1c-4.6,0-13.5-1.5-19.1-1.5c-4.6,0-11.9,1.3-17.5,1.3
		c-3.6,0-6.4-0.8-6.4-2.8c0-3.8,4.6-3.1,8.9-4.1c3.1-0.8,6.1-2.3,6.6-7.1c1.3-12.2,1.8-59,1.8-66.4c0-18.6-0.3-31.5-0.3-31.5
		c0-4.3-0.5-4.8-13-4.8c-25.4,0-25.7,2-27.7,4.3c-4.6,6.4-2.8,12.7-7.1,12.7c-1,0-1.8-0.5-1.8-3.1
		C141.6,626.7,142.6,618.1,143.4,613.7z"/>
	<path fill="#FFFFFF" d="M283.2,608.9c4.8,0,9.7,0.8,19.3,0.8c8.1,0,3.3-0.3,16-0.3c1.5,0,3.6,0.3,3.6,2.5c0,5.8-11.9-5.3-11.9,20.1
		v4.8c0,15.3-0.3,27.5-0.3,37.9c0,24.2,0,54.2,39.7,54.2c19.3,0,44.5-0.3,44.5-52.1c0-29.7-0.3-29.7-0.3-37.1
		c0-9.4-0.3-19.3-6.1-23.6c-4.1-3.1-10.7-1-10.7-3.8c0-1.5,0.8-2.8,3.3-2.8c2,0,11.2,0.3,13.2,0.3c7.1,0,11.2-0.5,14.5-0.5
		c3.6,0,3.6,1.5,3.6,2.3c0,2.8-6.4,3.8-8.1,7.6c-1.5,3.1-1.8,5.1-1.8,11.7c0,3.1,0.3,6.6,0.3,11.7c0,67.1-6.6,81.6-27.7,90.8
		c-6.1,2.5-18.6,3.8-24.4,3.8c-20.8,0-32.3-3.6-40.7-11.2c-13.7-12.7-14-28.7-14-64.8V658c0-12.2,0.3-19.8,0.3-25.4
		c0-12.2-1-16.3-12.7-18.1c-3.6-0.5-3.8-2.5-3.8-3.3C279.2,609.9,279.2,608.9,283.2,608.9z"/>
	<path fill="#FFFFFF" d="M441.1,608.6h28.5c7.4,0,11.2-0.5,17-0.5c19.6,0,37.4,10.7,37.4,29.5c0,25.9-21.4,30.8-21.4,33.6
		s27.2,41.7,34.1,49.1c4.1,4.1,10.4,8.1,32,8.1c1,0,2.3,0.8,2.3,2c0,1.8-0.3,3.1-3.3,3.8c-1.8,0.5-21.1,0.5-25.7,0.5
		c-0.5,0-8.6-0.3-14.7-4.1c-9.2-5.3-21.9-27.5-30.8-42.2c-7.1-11.9-10.7-13.7-12.7-13.7h-3.3h-10.4c-2.5,0-2.8,0-2.8,12.5
		c0,24.7,0.3,22.4,0.3,24.7c0,21.4,21.1,14,21.1,19.6c0,1.8-0.8,2.8-3.1,2.8c-0.8,0-22.9-1.3-24.4-1.3c-8.1,0-17,0.8-18.8,0.8
		s-3.6-0.5-3.6-2.8c0-6.1,14.5,1.5,14.5-17.8c0-11.2,0.3-35.8,0.3-55.4c0-18.6-0.3-24.9-0.3-29.7c0-19.1-16.5-11.9-16.5-17.3
		C436,609.2,437.5,608.6,441.1,608.6z M468.6,666.9c2.3,1.5,4.1,1.5,7.4,1.5h1.8h5.1c20.8,0,27.2-11.9,27.2-24.4
		c0-12.2-8.6-28.7-33.3-28.7c-8.6,0-9.2,3.6-9.2,19.3v4.8C467,662.5,467,666.1,468.6,666.9z"/>
</g>
<path id="outline" fill="#FFFFFF" d="M576.4,18.3H18.3v563.6h563.4V18.3H576.4z M571.3,28.7c0,10.2,0,532.6,0,542.8
	c-10.2,0-532.4,0-542.5,0c0-10.2,0-532.6,0-542.8C38.9,28.7,561.1,28.7,571.3,28.7z"/>
<g id="J">
	<path fill="#FFFFFF" d="M243.6,538.7c21.1-3.6,38.6-8.4,61.3-28c24.9-21.6,34.3-52.6,38.4-68.6c5.8-22.6,5.3-65.8,5.3-65.8v-224
		c0,0-1.5-48.3,2-60.3c3.6-12.2,11.2-21.1,15.8-25.7c10.2-10.2,31.5-13.5,31.5-13.5c6.1-1,7.6-3.8,7.1-6.9c-0.8-4.3-4.3-4.6-4.3-4.6
		l-151.5-0.3c0,0-3.8,0.8-4.6,4.8c-0.5,2.8,0.8,5.8,7.1,6.9c0,0,21.4,3.3,31.5,13.5c4.6,4.6,12.2,13.5,15.8,25.7
		c3.6,12.2,2,60.3,2,60.3l-3.3,223.2c0,9.7,1,50.8-1.3,65.6c-3.3,20.6-8.4,38.1-21.4,51.6c-13.2,13.5-25.4,17.8-43.2,17.8
		s-29.7-5.3-42.5-14.7c-12.7-9.7-36.6-31.5-36.6-31.5l23.1,72.2C174.9,536.4,219.9,542.5,243.6,538.7z"/>
	<path fill="#FFFFFF" d="M246.1,557.5c40.9-3.6,69.4-21.1,94.6-54.9c29.5-39.7,29.5-87.5,29.5-87.5V344V168.1v-60.8
		c0,0-1-11.4,4.6-23.4c5.6-11.7,17.8-18.1,17.3-19.1c-0.3-0.8-16,5.1-25.7,17.5c-6.9,8.9-6.4,21.4-6.4,25.2s-0.3,44-0.3,48.6v189.7
		v54.7c0,0-0.3,42.5-14,69.9c-12.7,25.7-23.4,46.8-59.7,66.9c-21.4,11.7-37.9,13.7-58.5,14.5c-23.6,1-45-2.8-45-1.3
		C182.8,553,211.3,560.6,246.1,557.5z"/>
</g>
</svg>
